<?xml version="1.0" standalone="no"?>
<!DOCTYPE svg PUBLIC "-//W3C//DTD SVG 20010904//EN"
 "http://www.w3.org/TR/2001/REC-SVG-20010904/DTD/svg10.dtd">
<svg version="1.0" xmlns="http://www.w3.org/2000/svg"
 width="640.000000pt" height="480.000000pt" viewBox="0 0 640.000000 480.000000"
 preserveAspectRatio="xMidYMid meet">
<metadata>
Created by potrace 1.16, written by Peter Selinger 2001-2019
</metadata>
<g transform="translate(0.000000,480.000000) scale(0.100000,-0.100000)"
fill="#000000" stroke="none">
<path d="M0 2400 l0 -2400 3200 0 3200 0 0 2400 0 2400 -3200 0 -3200 0 0
-2400z m2740 945 l0 -255 -115 0 -115 0 0 -260 0 -260 -110 0 -110 0 0 -170 0
-170 110 0 110 0 0 -85 0 -85 230 0 230 0 0 -85 0 -85 -570 0 -570 0 0 85 0
85 -115 0 -115 0 0 425 0 425 115 0 115 0 0 175 0 175 115 0 115 0 0 85 0 85
115 0 115 0 0 85 0 85 225 0 225 0 0 -255z m1830 -170 l0 -85 115 0 115 0 0
-260 0 -260 -115 0 -115 0 0 -255 0 -255 -115 0 -115 0 0 -515 0 -515 -115 0
-115 0 0 -170 0 -170 -110 0 -110 0 0 -90 0 -90 -115 0 -115 0 0 90 0 90 -115
0 -115 0 0 85 0 85 115 0 115 0 0 85 0 85 -115 0 -115 0 0 430 0 430 -115 0
-115 0 0 85 0 85 230 0 230 0 0 170 0 170 115 0 115 0 0 170 0 170 110 0 110
0 0 85 0 85 115 0 115 0 0 175 0 175 115 0 115 0 0 -85z"/>
</g>
</svg>
